<mxfile host="Electron" modified="2023-11-08T16:16:01.087Z" agent="Mozilla/5.0 (Macintosh; Intel Mac OS X 10_15_7) AppleWebKit/537.36 (KHTML, like Gecko) draw.io/22.0.3 Chrome/114.0.5735.289 Electron/25.8.4 Safari/537.36" etag="S6V11H1cmGuNNJssGk8O" version="22.0.3" type="device">
  <diagram name="Pagina-1" id="NICGis28inxsklLHxmmn">
    <mxGraphModel dx="1008" dy="900" grid="1" gridSize="10" guides="1" tooltips="1" connect="1" arrows="1" fold="1" page="1" pageScale="1" pageWidth="827" pageHeight="1169" math="0" shadow="0">
      <root>
        <mxCell id="0" />
        <mxCell id="1" parent="0" />
        <mxCell id="PwTcXXiBSnDRPqvwkHsa-6" style="edgeStyle=orthogonalEdgeStyle;rounded=0;orthogonalLoop=1;jettySize=auto;html=1;exitX=0.5;exitY=1;exitDx=0;exitDy=0;entryX=0.5;entryY=1;entryDx=0;entryDy=0;endArrow=open;endFill=0;" edge="1" parent="1" source="PwTcXXiBSnDRPqvwkHsa-1" target="PwTcXXiBSnDRPqvwkHsa-2">
          <mxGeometry relative="1" as="geometry">
            <Array as="points">
              <mxPoint x="619" y="460" />
              <mxPoint x="294" y="460" />
            </Array>
          </mxGeometry>
        </mxCell>
        <mxCell id="PwTcXXiBSnDRPqvwkHsa-1" value="passwordDimenticata" style="rounded=1;whiteSpace=wrap;html=1;fillColor=#d5e8d4;strokeColor=#82b366;" vertex="1" parent="1">
          <mxGeometry x="544" y="330" width="150" height="70" as="geometry" />
        </mxCell>
        <mxCell id="PwTcXXiBSnDRPqvwkHsa-4" style="edgeStyle=orthogonalEdgeStyle;rounded=0;orthogonalLoop=1;jettySize=auto;html=1;entryX=0;entryY=0.5;entryDx=0;entryDy=0;endArrow=open;endFill=0;" edge="1" parent="1" source="PwTcXXiBSnDRPqvwkHsa-2" target="PwTcXXiBSnDRPqvwkHsa-1">
          <mxGeometry relative="1" as="geometry" />
        </mxCell>
        <mxCell id="PwTcXXiBSnDRPqvwkHsa-2" value="passwordNonDimenticata" style="rounded=1;whiteSpace=wrap;html=1;fillColor=#d5e8d4;strokeColor=#82b366;" vertex="1" parent="1">
          <mxGeometry x="214" y="330" width="160" height="70" as="geometry" />
        </mxCell>
        <mxCell id="PwTcXXiBSnDRPqvwkHsa-3" value="create/" style="html=1;verticalAlign=bottom;startArrow=circle;startFill=1;endArrow=open;startSize=6;endSize=8;curved=0;rounded=0;" edge="1" parent="1">
          <mxGeometry width="80" relative="1" as="geometry">
            <mxPoint x="134" y="364.73" as="sourcePoint" />
            <mxPoint x="214" y="364.73" as="targetPoint" />
          </mxGeometry>
        </mxCell>
        <mxCell id="PwTcXXiBSnDRPqvwkHsa-5" value="passwordDimenticata()/" style="text;html=1;align=center;verticalAlign=middle;resizable=0;points=[];autosize=1;strokeColor=none;fillColor=none;" vertex="1" parent="1">
          <mxGeometry x="382" y="338" width="150" height="30" as="geometry" />
        </mxCell>
        <mxCell id="PwTcXXiBSnDRPqvwkHsa-7" value="modificaPassword()/" style="text;html=1;align=center;verticalAlign=middle;resizable=0;points=[];autosize=1;strokeColor=none;fillColor=none;" vertex="1" parent="1">
          <mxGeometry x="393" y="460" width="130" height="30" as="geometry" />
        </mxCell>
      </root>
    </mxGraphModel>
  </diagram>
</mxfile>
